<svg width="22" height="20" viewBox="0 0 22 20" fill="none" xmlns="http://www.w3.org/2000/svg">
<path fill-rule="evenodd" clip-rule="evenodd" d="M3.953 0.25H18.047C18.714 0.25 19.284 0.25 19.74 0.307C20.223 0.368 20.69 0.505 21.074 0.865C21.464 1.232 21.619 1.689 21.687 2.164C21.75 2.601 21.75 3.144 21.75 3.764V4.54C21.75 5.029 21.75 5.45 21.714 5.803C21.674 6.183 21.589 6.538 21.383 6.879C21.178 7.218 20.903 7.464 20.585 7.684C20.286 7.892 19.905 8.107 19.455 8.36L16.513 10.016C15.843 10.393 15.61 10.529 15.454 10.664C15.097 10.974 14.892 11.319 14.796 11.75C14.755 11.935 14.75 12.167 14.75 12.873V15.605C14.75 16.506 14.75 17.271 14.657 17.86C14.559 18.485 14.33 19.085 13.73 19.46C13.143 19.827 12.498 19.793 11.87 19.644C11.265 19.501 10.52 19.209 9.626 18.86L9.54 18.826C9.12 18.662 8.754 18.519 8.464 18.369C8.152 18.208 7.862 18.008 7.641 17.696C7.416 17.38 7.327 17.042 7.286 16.696C7.25 16.381 7.25 16.003 7.25 15.581V12.873C7.25 12.167 7.246 11.935 7.204 11.75C7.11322 11.3242 6.88137 10.9416 6.546 10.664C6.39 10.529 6.156 10.393 5.487 10.016L2.545 8.36C2.095 8.107 1.714 7.892 1.415 7.684C1.097 7.464 0.822 7.218 0.617 6.879C0.411 6.538 0.326 6.182 0.287 5.803C0.25 5.451 0.25 5.029 0.25 4.54V3.764C0.25 3.144 0.25 2.601 0.313 2.164C0.381 1.689 0.536 1.232 0.926 0.865C1.31 0.505 1.776 0.368 2.26 0.307C2.716 0.25 3.286 0.25 3.953 0.25ZM2.448 1.796C2.114 1.838 2.008 1.906 1.953 1.959C1.903 2.005 1.839 2.086 1.797 2.377C1.752 2.695 1.75 3.129 1.75 3.815V4.505C1.75 5.039 1.75 5.383 1.778 5.649C1.804 5.896 1.848 6.015 1.902 6.104C1.957 6.195 2.049 6.298 2.27 6.452C2.504 6.614 2.823 6.795 3.31 7.069L6.223 8.709L6.303 8.754C6.863 9.069 7.243 9.283 7.529 9.531C8.10742 10.019 8.50823 10.6845 8.669 11.424C8.75 11.791 8.75 12.204 8.75 12.784V15.543C8.75 16.015 8.751 16.305 8.777 16.523C8.799 16.721 8.836 16.788 8.863 16.827C8.893 16.869 8.953 16.934 9.152 17.037C9.364 17.146 9.657 17.261 10.119 17.442C11.08 17.818 11.727 18.069 12.216 18.185C12.695 18.299 12.853 18.24 12.934 18.189C13.002 18.146 13.107 18.059 13.176 17.626C13.248 17.169 13.25 16.523 13.25 15.542V12.784C13.25 12.204 13.25 11.791 13.332 11.424C13.4925 10.6847 13.893 10.0191 14.471 9.531C14.757 9.283 15.138 9.068 15.696 8.754L15.777 8.709L18.69 7.069C19.177 6.795 19.496 6.614 19.73 6.452C19.951 6.298 20.043 6.195 20.098 6.104C20.152 6.015 20.196 5.896 20.221 5.649C20.249 5.383 20.25 5.039 20.25 4.504V3.814C20.25 3.129 20.248 2.694 20.203 2.377C20.161 2.086 20.096 2.005 20.048 1.959C19.992 1.907 19.886 1.838 19.552 1.796C19.202 1.751 18.727 1.75 18 1.75H4C3.273 1.75 2.799 1.751 2.448 1.796Z" fill="white"/>
</svg>
