<svg width="18" height="13" viewBox="0 0 18 13" fill="none" xmlns="http://www.w3.org/2000/svg">
<path d="M6.00002 10.17L2.53002 6.7C2.34305 6.51302 2.08945 6.40798 1.82502 6.40798C1.5606 6.40798 1.307 6.51302 1.12002 6.7C0.933046 6.88698 0.828003 7.14057 0.828003 7.405C0.828003 7.53593 0.853792 7.66558 0.903897 7.78654C0.954002 7.90751 1.02744 8.01742 1.12002 8.11L5.30002 12.29C5.69002 12.68 6.32002 12.68 6.71002 12.29L17.29 1.71C17.477 1.52302 17.582 1.26943 17.582 1.005C17.582 0.740575 17.477 0.486979 17.29 0.300001C17.103 0.113024 16.8494 0.00798035 16.585 0.00798035C16.3206 0.00798035 16.067 0.113024 15.88 0.300001L6.00002 10.17Z" fill="white"/>
</svg>
