<svg width="18" height="19" viewBox="0 0 18 19" fill="none" xmlns="http://www.w3.org/2000/svg">
<path d="M15.293 14.293C15.4729 14.1137 15.7144 14.0095 15.9683 14.0018C16.2223 13.994 16.4697 14.0832 16.6602 14.2513C16.8508 14.4193 16.9703 14.6536 16.9944 14.9065C17.0184 15.1594 16.9454 15.412 16.79 15.613L16.707 15.707L15.207 17.207C14.9171 17.4968 14.5731 17.7268 14.1944 17.8836C13.8157 18.0405 13.4098 18.1212 13 18.1212C12.5901 18.1212 12.1842 18.0405 11.8055 17.8836C11.4268 17.7268 11.0828 17.4968 10.793 17.207C10.5986 17.0128 10.3397 16.8967 10.0655 16.8807C9.79123 16.8647 9.52062 16.9498 9.30496 17.12L9.20695 17.207L8.70695 17.707C8.527 17.8863 8.28552 17.9905 8.03157 17.9982C7.77762 18.006 7.53024 17.9168 7.33968 17.7488C7.14911 17.5807 7.02965 17.3464 7.00556 17.0935C6.98146 16.8406 7.05454 16.588 7.20996 16.387L7.29296 16.293L7.79296 15.793C8.08277 15.5032 8.42684 15.2732 8.80552 15.1164C9.1842 14.9595 9.59007 14.8788 9.99996 14.8788C10.4098 14.8788 10.8157 14.9595 11.1944 15.1164C11.5731 15.2732 11.9171 15.5032 12.207 15.793C12.4013 15.9872 12.6602 16.1033 12.9344 16.1193C13.2087 16.1353 13.4793 16.0502 13.695 15.88L13.793 15.793L15.293 14.293ZM13.483 0.983001C13.9397 0.518854 14.5596 0.251249 15.2106 0.237119C15.8617 0.22299 16.4925 0.463452 16.969 0.907347C17.4455 1.35124 17.7299 1.96353 17.7618 2.61395C17.7938 3.26436 17.5707 3.90157 17.14 4.39L17.018 4.52L5.44196 16.095C5.29797 16.2391 5.12614 16.3524 4.93695 16.428L4.79195 16.477L1.95496 17.284C1.79229 17.3305 1.62049 17.335 1.45561 17.2971C1.29072 17.2592 1.13814 17.1801 1.0121 17.0673C0.886055 16.9544 0.790676 16.8115 0.734866 16.6518C0.679056 16.492 0.664637 16.3208 0.692955 16.154L0.717955 16.047L1.52496 13.209C1.58093 13.0132 1.6762 12.8308 1.80496 12.673L1.90696 12.559L13.483 0.983001Z" fill="white"/>
</svg>
