<svg width="24" height="24" viewBox="0 0 24 24" fill="none" xmlns="http://www.w3.org/2000/svg">
<path fill-rule="evenodd" clip-rule="evenodd" d="M3.99996 12C3.99891 10.3747 4.56344 8.79972 5.59673 7.54518C6.63001 6.29064 8.06765 5.43475 9.66301 5.12434C11.2584 4.81392 12.912 5.06832 14.3403 5.8439C15.7686 6.61948 16.8825 7.8679 17.491 9.375C17.5916 9.61909 17.7848 9.81347 18.0282 9.91571C18.2717 10.0179 18.5456 10.0198 18.7904 9.92073C19.0352 9.82172 19.2309 9.62991 19.3348 9.38716C19.4386 9.14442 19.4423 8.87044 19.345 8.625C18.8824 7.47168 18.1861 6.4266 17.2999 5.55555C16.4137 4.68449 15.3567 4.00633 14.1956 3.56374C13.0345 3.12115 11.7943 2.92372 10.5531 2.98388C9.31194 3.04404 8.09667 3.36048 6.98378 3.91329C5.87089 4.4661 4.88449 5.2433 4.08667 6.19598C3.28885 7.14865 2.69688 8.25618 2.34803 9.44883C1.99917 10.6415 1.90099 11.8934 2.05966 13.1259C2.21832 14.3583 2.6304 15.5446 3.26996 16.61L2.48996 19.259C2.43869 19.4328 2.43522 19.6172 2.47993 19.7929C2.52464 19.9685 2.61587 20.1288 2.74401 20.2569C2.87215 20.3851 3.03247 20.4763 3.20809 20.521C3.38371 20.5657 3.56814 20.5623 3.74196 20.511L6.39196 19.731C7.45776 20.3685 8.6446 20.7772 9.87696 20.931C10.1402 20.9639 10.4057 20.8909 10.6151 20.728C10.8245 20.5651 10.9606 20.3257 10.9935 20.0625C11.0263 19.7993 10.9533 19.5338 10.7904 19.3244C10.6276 19.115 10.3882 18.9789 10.125 18.946C9.09974 18.8184 8.11587 18.4638 7.24496 17.908C7.07308 17.798 6.87964 17.7261 6.67766 17.6971C6.47567 17.6682 6.26982 17.6828 6.07396 17.74L4.92196 18.079L5.26096 16.927C5.38096 16.519 5.30796 16.093 5.09296 15.757C4.37696 14.6349 3.99765 13.3311 3.99996 12ZM20 16.5C19.9999 15.7234 19.7415 14.9689 19.2655 14.3552C18.7896 13.7416 18.123 13.3036 17.3708 13.1104C16.6186 12.9172 15.8235 12.9796 15.1107 13.2879C14.3979 13.5961 13.8079 14.1327 13.4335 14.8131C13.0591 15.4935 12.9217 16.2791 13.0428 17.0462C13.1639 17.8133 13.5367 18.5184 14.1026 19.0503C14.6684 19.5823 15.395 19.9109 16.1682 19.9846C16.9413 20.0582 17.7169 19.8726 18.373 19.457C18.643 19.2852 18.9684 19.2226 19.283 19.282C19.2233 18.9676 19.2855 18.6422 19.457 18.372C19.8126 17.8125 20.001 17.163 20 16.5ZM16.5 11C17.4555 10.9999 18.3946 11.2488 19.2247 11.7221C20.0548 12.1955 20.7473 12.8769 21.2339 13.6993C21.7205 14.5217 21.9844 15.4567 21.9997 16.4121C22.0149 17.3675 21.781 18.3105 21.321 19.148L21.707 20.459C21.758 20.6323 21.7614 20.8161 21.7168 20.9911C21.6722 21.1661 21.5813 21.3259 21.4535 21.4536C21.3258 21.5813 21.1661 21.6722 20.991 21.7168C20.816 21.7614 20.6322 21.758 20.459 21.707L19.149 21.321C18.4139 21.7246 17.5963 21.9548 16.7586 21.994C15.921 22.0332 15.0854 21.8803 14.3159 21.547C13.5464 21.2137 12.8633 20.7089 12.3188 20.0712C11.7743 19.4334 11.3828 18.6796 11.1744 17.8673C10.9659 17.0551 10.9459 16.2059 11.116 15.3847C11.286 14.5636 11.6416 13.7922 12.1555 13.1295C12.6694 12.4668 13.328 11.9305 14.081 11.5614C14.834 11.1923 15.6614 11.0003 16.5 11Z" fill="white"/>
</svg>
