<svg width="20" height="20" viewBox="0 0 20 20" fill="none" xmlns="http://www.w3.org/2000/svg">
<path fill-rule="evenodd" clip-rule="evenodd" d="M8.31 0.25H11.69C11.907 0.25 12.096 0.25 12.274 0.278C12.6207 0.333543 12.9496 0.469462 13.2344 0.674881C13.5192 0.880301 13.7519 1.14952 13.914 1.461C13.998 1.621 14.057 1.8 14.126 2.005L14.237 2.34C14.3136 2.61216 14.4802 2.85032 14.7096 3.0156C14.9389 3.18088 15.2176 3.26351 15.5 3.25H18.5C18.6989 3.25 18.8897 3.32902 19.0303 3.46967C19.171 3.61032 19.25 3.80109 19.25 4C19.25 4.19891 19.171 4.38968 19.0303 4.53033C18.8897 4.67098 18.6989 4.75 18.5 4.75H1.5C1.30109 4.75 1.11032 4.67098 0.96967 4.53033C0.829018 4.38968 0.75 4.19891 0.75 4C0.75 3.80109 0.829018 3.61032 0.96967 3.46967C1.11032 3.32902 1.30109 3.25 1.5 3.25H4.59C4.8571 3.24359 5.11513 3.15177 5.32623 2.988C5.53733 2.82423 5.6904 2.59713 5.763 2.34L5.875 2.005C5.943 1.8 6.002 1.621 6.085 1.461C6.24719 1.1494 6.48009 0.880102 6.76505 0.674675C7.05001 0.469248 7.37911 0.333397 7.726 0.278C7.904 0.25 8.093 0.25 8.309 0.25H8.31ZM7.008 3.25C7.07822 3.11249 7.13675 2.96932 7.183 2.822L7.283 2.522C7.374 2.249 7.395 2.194 7.416 2.154C7.46999 2.05001 7.54758 1.96011 7.64257 1.89152C7.73757 1.82292 7.84731 1.77754 7.963 1.759C8.09336 1.74799 8.22427 1.74498 8.355 1.75H11.645C11.933 1.75 11.993 1.752 12.037 1.76C12.1526 1.77843 12.2623 1.82366 12.3573 1.89208C12.4522 1.9605 12.5299 2.05019 12.584 2.154C12.605 2.194 12.626 2.249 12.717 2.523L12.817 2.823L12.856 2.935C12.895 3.045 12.941 3.149 12.992 3.25H7.008Z" fill="white"/>
<path d="M3.91505 6.45C3.90179 6.25148 3.81021 6.06637 3.66047 5.93537C3.51072 5.80438 3.31507 5.73824 3.11655 5.7515C2.91804 5.76476 2.73292 5.85634 2.60193 6.00609C2.47093 6.15583 2.40479 6.35149 2.41805 6.55L2.88205 13.502C2.96705 14.784 3.03605 15.82 3.19805 16.634C3.36705 17.479 3.65305 18.185 4.24505 18.738C4.83605 19.292 5.56005 19.531 6.41505 19.642C7.23705 19.75 8.27505 19.75 9.56105 19.75H10.4401C11.7251 19.75 12.7641 19.75 13.5861 19.642C14.4401 19.531 15.1641 19.292 15.7561 18.738C16.3471 18.185 16.6331 17.478 16.8021 16.634C16.9641 15.821 17.0321 14.784 17.1181 13.502L17.5821 6.55C17.5953 6.35149 17.5292 6.15583 17.3982 6.00609C17.2672 5.85634 17.0821 5.76476 16.8836 5.7515C16.685 5.73824 16.4894 5.80438 16.3396 5.93537C16.1899 6.06637 16.0983 6.25148 16.0851 6.45L15.6251 13.35C15.5351 14.697 15.4711 15.635 15.3311 16.34C15.1941 17.025 15.0041 17.387 14.7311 17.643C14.4571 17.899 14.0831 18.065 13.3911 18.155C12.6781 18.248 11.7381 18.25 10.3871 18.25H9.61305C8.26305 18.25 7.32305 18.248 6.60905 18.155C5.91705 18.065 5.54305 17.899 5.26905 17.643C4.99605 17.387 4.80605 17.025 4.66905 16.341C4.52905 15.635 4.46505 14.697 4.37505 13.349L3.91505 6.45Z" fill="white"/>
<path d="M7.42498 8.254C7.62282 8.23417 7.82044 8.29372 7.97439 8.41954C8.12834 8.54537 8.22603 8.72717 8.24598 8.925L8.74598 13.925C8.76063 14.1201 8.69847 14.3132 8.57277 14.4631C8.44706 14.613 8.26776 14.7078 8.07311 14.7274C7.87846 14.747 7.68387 14.6897 7.53084 14.5678C7.37781 14.4459 7.27846 14.2691 7.25398 14.075L6.75398 9.075C6.73416 8.87716 6.7937 8.67955 6.91953 8.52559C7.04535 8.37164 7.22716 8.27395 7.42498 8.254ZM12.575 8.254C12.7726 8.27396 12.9543 8.37151 13.0801 8.52524C13.2059 8.67897 13.2655 8.87632 13.246 9.074L12.746 14.074C12.7212 14.2677 12.6218 14.4441 12.469 14.5657C12.3161 14.6873 12.1219 14.7445 11.9275 14.7251C11.7332 14.7057 11.5541 14.6112 11.4283 14.4618C11.3025 14.3124 11.24 14.1198 11.254 13.925L11.754 8.925C11.7739 8.72737 11.8715 8.54572 12.0252 8.41992C12.179 8.29413 12.3773 8.23445 12.575 8.254Z" fill="white"/>
</svg>
