<svg width="16" height="8" viewBox="0 0 16 8" fill="none" xmlns="http://www.w3.org/2000/svg">
<path fill-rule="evenodd" clip-rule="evenodd" d="M0.430053 0.512C0.49418 0.437177 0.572424 0.375725 0.660313 0.331156C0.748202 0.286588 0.844011 0.259776 0.942267 0.252253C1.04052 0.244731 1.1393 0.256646 1.23295 0.287316C1.3266 0.317986 1.41328 0.366811 1.48805 0.430999L8.00005 6.012L14.5121 0.430999C14.6639 0.309128 14.8571 0.251072 15.051 0.269103C15.2449 0.287134 15.4241 0.379839 15.5508 0.527621C15.6776 0.675403 15.7419 0.86668 15.7302 1.06102C15.7185 1.25535 15.6316 1.43752 15.4881 1.569L8.48805 7.569C8.35213 7.68546 8.17904 7.74948 8.00005 7.74948C7.82106 7.74948 7.64797 7.68546 7.51205 7.569L0.512053 1.569C0.361238 1.43952 0.267993 1.25546 0.252805 1.05726C0.237617 0.859069 0.301728 0.662952 0.431053 0.512H0.430053Z" fill="white"/>
</svg>
