<svg width="18" height="14" viewBox="0 0 18 14" fill="none" xmlns="http://www.w3.org/2000/svg">
<path fill-rule="evenodd" clip-rule="evenodd" d="M7.52933 13.5494C7.3887 13.6898 7.19808 13.7687 6.99933 13.7687C6.80058 13.7687 6.60995 13.6898 6.46933 13.5494L0.469328 7.54937C0.328878 7.40874 0.249989 7.21812 0.249989 7.01937C0.249989 6.82062 0.328878 6.62999 0.469328 6.48937L6.46933 0.489367C6.53799 0.41568 6.62079 0.356578 6.71279 0.315586C6.80479 0.274594 6.9041 0.252553 7.00481 0.250776C7.10551 0.249 7.20554 0.267524 7.29893 0.305244C7.39231 0.342965 7.47715 0.399111 7.54837 0.470329C7.61959 0.541548 7.67573 0.626382 7.71345 0.71977C7.75117 0.813159 7.7697 0.913186 7.76792 1.01389C7.76614 1.11459 7.7441 1.21391 7.70311 1.30591C7.66212 1.39791 7.60301 1.48071 7.52933 1.54937L2.80933 6.26937L16.9993 6.26937C17.1982 6.26937 17.389 6.34839 17.5297 6.48904C17.6703 6.62969 17.7493 6.82046 17.7493 7.01937C17.7493 7.21828 17.6703 7.40904 17.5297 7.5497C17.389 7.69035 17.1982 7.76937 16.9993 7.76937L2.80933 7.76937L7.52933 12.4894C7.66978 12.63 7.74867 12.8206 7.74867 13.0194C7.74867 13.2181 7.66978 13.4087 7.52933 13.5494Z" fill="white"/>
</svg>
