<svg width="21" height="19" viewBox="0 0 21 19" fill="none" xmlns="http://www.w3.org/2000/svg">
<path d="M7.25 18.25C7.66421 18.25 8 17.9142 8 17.5C8 17.0858 7.66421 16.75 7.25 16.75C6.83579 16.75 6.5 17.0858 6.5 17.5C6.5 17.9142 6.83579 18.25 7.25 18.25Z" stroke="white" stroke-linecap="round" stroke-linejoin="round"/>
<path d="M17.75 18.25C18.1642 18.25 18.5 17.9142 18.5 17.5C18.5 17.0858 18.1642 16.75 17.75 16.75C17.3358 16.75 17 17.0858 17 17.5C17 17.9142 17.3358 18.25 17.75 18.25Z" stroke="white" stroke-linecap="round" stroke-linejoin="round"/>
<path d="M1.25 1.75H4.25L6.5 14.5H18.5" stroke="white" stroke-width="2" stroke-linecap="round" stroke-linejoin="round"/>
<path d="M6.5 11.5H18.1925C18.2792 11.5001 18.3633 11.4701 18.4304 11.4151C18.4975 11.3601 18.5434 11.2836 18.5605 11.1986L19.9105 4.44859C19.9214 4.39417 19.92 4.338 19.9066 4.28414C19.8931 4.23029 19.8679 4.18009 19.8327 4.13717C19.7975 4.09426 19.7532 4.05969 19.703 4.03597C19.6528 4.01225 19.598 3.99996 19.5425 4H5" stroke="white" stroke-width="2" stroke-linecap="round" stroke-linejoin="round"/>
</svg>
