<svg width="19" height="19" viewBox="0 0 19 19" fill="none" xmlns="http://www.w3.org/2000/svg">
<path fill-rule="evenodd" clip-rule="evenodd" d="M8.82393 1.50472C7.86276 1.50472 6.911 1.69404 6.02299 2.06186C5.13499 2.42969 4.32812 2.96882 3.64847 3.64847C2.96882 4.32812 2.42969 5.13499 2.06186 6.02299C1.69404 6.911 1.50472 7.86276 1.50472 8.82393C1.50472 9.78511 1.69404 10.7369 2.06186 11.6249C2.42969 12.5129 2.96882 13.3197 3.64847 13.9994C4.32812 14.6791 5.13499 15.2182 6.02299 15.586C6.911 15.9538 7.86276 16.1431 8.82393 16.1431C10.7651 16.1431 12.6268 15.372 13.9994 13.9994C15.372 12.6268 16.1431 10.7651 16.1431 8.82393C16.1431 6.88276 15.372 5.02109 13.9994 3.64847C12.6268 2.27585 10.7651 1.50472 8.82393 1.50472ZM0.25 8.82393C0.25 4.08945 4.08945 0.25 8.82393 0.25C13.5584 0.25 17.3979 4.08945 17.3979 8.82393C17.3979 10.9653 16.6124 12.9244 15.3142 14.4267L18.0503 17.1637C18.112 17.2211 18.1614 17.2903 18.1957 17.3673C18.23 17.4443 18.2484 17.5273 18.2499 17.6116C18.2514 17.6958 18.2359 17.7795 18.2043 17.8576C18.1728 17.9357 18.1258 18.0067 18.0663 18.0663C18.0067 18.1258 17.9357 18.1728 17.8576 18.2043C17.7795 18.2359 17.6958 18.2514 17.6116 18.2499C17.5273 18.2484 17.4443 18.23 17.3673 18.1957C17.2903 18.1614 17.2211 18.112 17.1637 18.0503L14.4267 15.3142C12.8711 16.661 10.8815 17.4009 8.82393 17.3979C4.08945 17.3979 0.25 13.5584 0.25 8.82393Z" fill="white"/>
</svg>
